<svg id="Ebene_1" data-name="Ebene 1" xmlns="http://www.w3.org/2000/svg" viewBox="0 0 660 607.3"><defs><style>.cls-1{fill:#fff;}.cls-2{fill:#4caf50;stroke:#1b5e20;stroke-miterlimit:10;}</style></defs><title>icon</title><path class="cls-1" d="M321.43,514.21v-85.4H444q14.09-11.69,28.08-24.22c49.57-44.4,91.6-91,123.84-135.43V160H485.31V343.23H321.43V160H210.16v400.8C243.11,552.82,281.1,536.94,321.43,514.21Z" transform="translate(-94 -65.22)"/><path class="cls-1" d="M506.12,442.58q-10.37,9.3-20.81,18.18V621.54H595.94V352.34A1088.48,1088.48,0,0,1,506.12,442.58Z" transform="translate(-94 -65.22)"/><path class="cls-2" d="M309.46,806.78" transform="translate(-94 -65.22)"/><path class="cls-1" d="M556.17,94.56c54.08-17,97.17-15.39,119,8.94,50,55.78-31,209.77-180.76,343.94S182.63,645.15,132.66,589.36C110.87,565,114,522,136.83,470.14c-44.32,78.14-56.54,144.71-25.79,179,57.65,64.37,244.51-8.94,417.35-163.75S794.61,152.94,737,88.57C706.21,54.23,638.7,59.08,556.17,94.56Z" transform="translate(-94 -65.22)"/><path class="cls-1" d="M153.85,527.63S159,635.39,335.62,512,590.1,322.48,629.05,188.75c0,0-98,165-181.14,214.34S221.36,592.54,153.85,527.63Z" transform="translate(-94 -65.22)"/></svg>